<svg xmlns="http://www.w3.org/2000/svg" width="350" height="436" fill="none"><script xmlns="" src="chrome-extension://hoklmmgfnpapgjgcpechhaamimifchmp/frame_ant/frame_ant.js"/><path d="M350 300.39c0 18.298-12.479 34.031-30.381 41.082L316.296 441H-11.128l-7.114-378.533c-.525-3.146-.758-6.351-.758-9.673C-19 23.658 1.817 0 27.533 0s46.533 23.658 46.533 52.794c0 8.916-1.982 17.365-5.423 24.766 4.024 4.02 7.173 9.323 9.039 15.442 6.822-5.42 14.986-8.625 23.791-8.625 24.025 0 43.443 23.6 43.443 52.678 0 27.096-16.911 49.414-38.661 52.328l.175 5.827c8.513-2.739 18.018-4.254 28.048-4.254 21.867 0 41.285 7.284 53.122 18.414 9.039-17.656 28.223-29.893 50.382-29.893 30.847 0 55.922 23.6 55.922 52.677a49.974 49.974 0 01-6.181 24.125 59.897 59.897 0 0110.787-.991c28.457.058 51.49 20.22 51.49 45.102z" fill="#fff"/></svg>