<svg xmlns="http://www.w3.org/2000/svg" width="304" height="431" fill="none"><script xmlns="" src="chrome-extension://hoklmmgfnpapgjgcpechhaamimifchmp/frame_ant/frame_ant.js"/><path d="M17.86 348.721v81.582h315.254l-16.496-294.867-.237-4.443c3.679-.83 7.18-2.015 10.562-3.614 21.005-9.776 35.839-33.534 35.839-61.32 0-36.495-25.633-66.059-57.2-66.059-31.567 0-57.2 29.564-57.2 66.06 0 11.137 2.373 21.565 6.586 30.748-8.366 2.073-15.428 5.273-20.352 9.064-9.02-7.465-20.175-11.849-32.161-11.849-30.439 0-55.123 28.261-55.123 63.097 0 26.128 13.885 48.522 33.644 58.12a73.021 73.021 0 0112.46 4.088c2.908.533 5.934.83 9.019.83h.178l-.118 3.969a60.245 60.245 0 00-9.079-4.799 51.172 51.172 0 01-12.46-4.088 72.06 72.06 0 00-16.14-1.836c-17.623 0-33.644 6.339-45.689 16.707-10.324-9.124-23.734-14.634-38.509-14.634-32.338 0-58.624 26.661-58.624 59.483 0 4.325.474 8.532 1.305 12.56C9.97 291.134 0 303.991 0 319.217c0 13.034 7.298 24.291 17.86 29.504z" fill="#fff"/></svg>