<svg xmlns="http://www.w3.org/2000/svg" width="30" height="28" viewBox="0 0 30 28" fill="none"><script xmlns="" src="chrome-extension://hoklmmgfnpapgjgcpechhaamimifchmp/frame_ant/frame_ant.js"/>
<path d="M13.4209 0H13.3347C13.0763 0 12.8178 0.0861538 12.6455 0.172308C12.2147 0.387692 11.827 0.775385 11.4824 1.29231C11.1378 1.80923 10.8793 2.36923 10.6209 3.10154C10.3624 3.74769 10.1901 4.43692 9.93165 5.29846C9.75934 5.90154 9.63011 6.59077 9.41472 7.53846V7.62462C9.37165 7.92615 9.28549 8.18462 9.24242 8.48615C8.68242 8.61539 8.12242 8.74462 7.51934 8.91692C6.74396 9.13231 6.01165 9.34769 5.27934 9.60615C4.46088 9.90769 3.77165 10.1662 3.12549 10.4677C2.39319 10.8123 1.87626 11.1569 1.40242 11.5015C0.885493 11.8892 0.540877 12.2769 0.36857 12.7077C0.153185 13.1815 0.153185 13.6985 0.36857 14.1292C0.4978 14.3446 0.627031 14.56 0.842416 14.7754C1.0578 14.9908 1.27319 15.1631 1.57472 15.3785C2.09165 15.7231 2.7378 16.0677 3.51319 16.4123C4.15934 16.7138 4.89165 16.9723 5.75319 17.2308C6.48549 17.4462 7.2178 17.6615 8.07934 17.92L8.03626 18.0923V18.2646C7.95011 18.8677 7.90703 19.5569 7.86395 20.2031C7.82088 21.0646 7.7778 21.7538 7.7778 22.4C7.7778 23.2185 7.82088 23.9077 7.90703 24.5108C7.95011 24.8985 8.03626 25.2431 8.12242 25.5446C8.20857 25.8031 8.29472 26.1477 8.46703 26.4923C8.76857 27.0954 9.15626 27.5262 9.63011 27.7415C9.97472 27.9138 10.3193 28 10.7501 28C11.0086 28 11.224 27.9569 11.4824 27.9138C11.827 27.8277 12.1286 27.6985 12.4301 27.5262C12.7747 27.3538 13.0763 27.1385 13.3347 26.9231C13.8947 26.4923 14.4547 25.9323 15.0147 25.2C15.4886 24.5969 15.9624 23.9508 16.4363 23.1754C16.7809 22.6585 17.0393 22.1846 17.2547 21.7969C17.987 22.4862 18.7624 23.1323 19.5809 23.7354C20.3563 24.2954 21.0024 24.6831 21.6055 24.9846C21.9932 25.1569 22.2947 25.2862 22.5963 25.4154C22.984 25.5446 23.2855 25.6308 23.587 25.6308C23.7163 25.6308 23.8455 25.6308 23.9747 25.6308C24.1901 25.6308 24.3624 25.6308 24.4916 25.5877C24.8363 25.5015 25.0947 25.4154 25.3101 25.2431C25.827 24.8985 26.1716 24.2954 26.344 23.52C26.4301 23.1754 26.4732 22.7877 26.4301 22.3569C26.4301 21.9692 26.387 21.5385 26.3009 21.1077C26.1716 20.2892 25.9132 19.4277 25.5255 18.4369C25.267 17.7046 24.9224 16.9292 24.4486 15.9385C24.3193 15.68 24.1901 15.4215 24.0609 15.1631C24.4055 14.9477 24.7932 14.6462 25.1809 14.3877C26.4732 13.44 27.3778 12.5785 28.1101 11.7169C28.3686 11.3723 28.584 11.1138 28.7563 10.8123C28.9716 10.4677 29.1009 10.1662 29.187 9.90769C29.3163 9.56308 29.3593 9.26154 29.3593 9.00308C29.3593 8.65846 29.2732 8.35692 29.144 8.09846C28.9286 7.66769 28.5409 7.32308 27.9378 7.06462C27.6793 6.93538 27.3778 6.84923 27.0763 6.80615C26.7316 6.72 26.344 6.67692 25.9993 6.63385C25.4393 6.59077 24.9224 6.54769 24.3193 6.54769C24.104 6.54769 23.8886 6.54769 23.6732 6.54769C22.9409 6.54769 22.1655 6.63385 21.2178 6.72C20.787 6.76308 20.3563 6.80615 19.9255 6.89231C19.624 6.37538 19.2363 5.72923 18.8486 5.12615C18.2886 4.26462 17.8147 3.57538 17.384 3.01538C16.824 2.28308 16.307 1.72308 15.7901 1.24923C15.4886 0.990769 15.2301 0.775385 15.0147 0.646154C14.7132 0.430769 14.4547 0.301538 14.1963 0.215385C13.9378 0.0430769 13.6793 0 13.4209 0Z" fill="#00BBAE"/>
<path d="M13.9377 3.79106C13.9377 4.35106 14.4116 4.78183 14.9285 4.78183C15.4885 4.78183 15.9193 4.30799 15.9193 3.79106C15.9193 3.23106 15.4454 2.80029 14.9285 2.80029C14.4116 2.80029 13.9377 3.23106 13.9377 3.79106Z" fill="#00BBAE"/>
<path d="M16.6084 6.37527C16.6084 6.54758 16.7376 6.67681 16.9099 6.67681C17.0822 6.67681 17.2115 6.54758 17.2115 6.37527C17.2115 6.20296 17.0822 6.07373 16.9099 6.07373C16.7376 6.11681 16.6084 6.24604 16.6084 6.37527Z" fill="#00BBAE"/>
</svg>