<svg xmlns="http://www.w3.org/2000/svg" width="52" height="51" viewBox="0 0 52 51" fill="none"><script xmlns="" src="chrome-extension://hoklmmgfnpapgjgcpechhaamimifchmp/frame_ant/frame_ant.js"/>
<path d="M49.4 20.3678C54.0044 17.0357 49.0971 14.794 45.7043 14.5517C42.1298 14.3094 38.1918 15.2787 34.7991 14.7335C34.4962 12.1889 42.1299 3.10122 38.0101 1.46543C36.0714 0.677834 32.1939 4.07057 30.9823 5.22168C29.2859 6.91805 28.5589 10.0684 26.4991 11.2195C24.4392 9.03851 22.137 -1.98788 17.1084 0.314331C14.3216 1.58661 14.9879 12.4918 16.3814 13.0371L16.8661 13.2794C14.5033 13.2794 11.9587 13.5218 9.59595 13.2794C7.77841 13.0977 3.77983 11.7042 2.3258 13.4006C-0.88518 17.1568 9.47478 23.8211 11.4135 25.5781C10.1412 27.638 -4.64144 33.4541 1.4776 35.514C3.35572 36.1198 6.74849 35.4534 8.62661 35.2716C11.1106 35.0293 14.2004 32.8482 16.5632 33.2723C17.0478 38.1797 13.4128 43.0264 12.8675 48.055C12.6858 49.5696 14.261 50.6601 15.6544 49.9937C18.6836 48.5396 20.9858 43.6929 22.3793 41.633C24.0151 39.2702 24.7421 39.6943 26.1961 41.7542C27.5896 43.814 28.8618 45.8739 30.3764 47.8732C31.3458 49.1455 32.2545 51.5083 34.3144 50.9024C35.9502 50.4178 36.4349 47.5703 36.5561 46.1162C36.7378 43.814 34.7385 38.1797 36.9196 36.7862C39.2218 35.3322 44.7956 38.1191 47.1584 38.2403C52.4292 38.4826 49.5211 34.1205 47.8854 31.6971C46.6131 29.819 45.5226 28.7285 43.5839 27.4562C42.0693 26.4263 39.7064 25.9416 40.9181 24.0635C42.3116 21.943 47.2795 21.8824 49.4 20.3678Z" fill="#FAB400"/>
<path d="M31.891 21.2158C29.8917 19.0953 26.5596 18.2472 23.7727 19.3983C20.9252 20.5494 20.0771 22.4881 20.4406 24.7297C20.3194 25.3355 20.2588 25.8808 20.2588 26.4867C20.5011 31.0911 26.1355 33.5145 29.9523 31.3334C33.1633 29.3947 34.5567 24.0027 31.891 21.2158Z" fill="#001430" fill-opacity="0.4"/>
</svg>