<svg xmlns="http://www.w3.org/2000/svg" width="57" height="56" viewBox="0 0 57 56" fill="none"><script xmlns="" src="chrome-extension://hoklmmgfnpapgjgcpechhaamimifchmp/frame_ant/frame_ant.js"/>
<path d="M54.2431 22.3647C59.299 18.7058 53.9105 16.2444 50.1851 15.9783C46.2602 15.7122 41.9361 16.7766 38.2108 16.1779C37.8782 13.3839 46.2602 3.40526 41.7366 1.60911C39.6078 0.744294 35.3503 4.46965 34.0198 5.73361C32.1571 7.59629 31.3588 11.0555 29.097 12.3195C26.8352 9.92463 24.3072 -2.18277 18.7857 0.345147C15.7256 1.74216 16.4574 13.7165 17.9874 14.3152L18.5196 14.5813C15.9252 14.5813 13.1312 14.8474 10.5367 14.5813C8.54098 14.3818 4.15038 12.8517 2.5538 14.7144C-0.971981 18.8389 10.4037 26.1565 12.5324 28.0858C11.1354 30.3476 -5.09648 36.7339 1.62247 38.9957C3.68472 39.661 7.41009 38.9292 9.47234 38.7296C12.1998 38.4635 15.5926 36.0687 18.187 36.5343C18.7192 41.9228 14.7278 47.2447 14.129 52.7662C13.9295 54.4293 15.6591 55.6268 17.1891 54.895C20.5153 53.2984 23.0433 47.9765 24.5733 45.7147C26.3695 43.1202 27.1678 43.5859 28.7644 45.8477C30.2944 48.1095 31.6914 50.3714 33.3545 52.5667C34.4189 53.9637 35.4168 56.5581 37.6786 55.8929C39.4748 55.3607 40.0069 52.234 40.14 50.6375C40.3396 48.1095 38.1443 41.9228 40.5391 40.3927C43.0671 38.7962 49.1873 41.8563 51.7817 41.9893C57.5693 42.2554 54.3762 37.4657 52.58 34.8047C51.183 32.7424 49.9856 31.545 47.8568 30.148C46.1937 29.0171 43.5993 28.4849 44.9297 26.4226C46.4598 24.0278 51.9813 23.9612 54.2431 22.3647Z" fill="#FFB2D5"/>
<path d="M35.0178 23.2297C32.8225 20.9014 29.1636 19.97 26.1035 21.234C22.9769 22.498 22.0456 24.6267 22.4447 27.0881C22.3117 27.7534 22.2451 28.3521 22.2451 29.0173C22.5112 34.0732 28.698 36.7341 32.889 34.3393C36.4148 32.277 37.9448 26.3564 35.0178 23.2297Z" fill="#001430" fill-opacity="0.4"/>
</svg>