<svg xmlns="http://www.w3.org/2000/svg" width="30" height="30" viewBox="0 0 30 30" fill="none"><script xmlns="" src="chrome-extension://hoklmmgfnpapgjgcpechhaamimifchmp/frame_ant/frame_ant.js"/>
<path d="M20.9115 0.359488L20.8648 0.313103C20.6313 0.173946 20.3511 0.0811752 20.1175 0.0347894C19.6038 -0.0579821 18.9967 0.0347887 18.3895 0.313103C17.7824 0.545032 17.1752 0.91612 16.5214 1.37998C15.9142 1.79745 15.3071 2.30769 14.5598 2.91071C14.0461 3.37456 13.4857 3.88481 12.7384 4.5806L12.645 4.67337C12.4115 4.9053 12.1779 5.13723 11.9444 5.32277C11.384 5.09084 10.7769 4.85891 10.1697 4.67337C9.37577 4.39505 8.53507 4.16312 7.74111 3.9312C6.80704 3.69927 6.01311 3.51372 5.26586 3.42095C4.42519 3.2818 3.72461 3.23541 3.07076 3.28179C2.37021 3.32818 1.85648 3.46734 1.38944 3.74565C0.922408 4.02397 0.595472 4.48782 0.502065 4.99807C0.455361 5.27638 0.455361 5.5547 0.502065 5.8794C0.548768 6.2041 0.642164 6.5288 0.782274 6.8535C1.01579 7.5029 1.38943 8.1523 1.90317 8.98725C2.3235 9.63665 2.79057 10.3324 3.39772 11.0746C3.91146 11.724 4.42518 12.3734 5.07903 13.1156L4.9389 13.2547L4.79882 13.3939C4.33179 13.9041 3.86474 14.4608 3.44441 15.0174C2.88397 15.7596 2.41694 16.3162 1.99661 16.9192C1.48287 17.6614 1.1092 18.2644 0.782274 18.8674C0.59546 19.2385 0.45535 19.6096 0.315239 19.9343C0.221832 20.2126 0.0817329 20.5837 0.0350294 20.9548C-0.0583776 21.6969 0.035018 22.3 0.315239 22.8102C0.502053 23.1349 0.782297 23.4596 1.15593 23.6915C1.38944 23.8307 1.62296 23.9699 1.85648 24.0626C2.23011 24.2018 2.55705 24.2482 2.93068 24.2946C3.35101 24.3409 3.72463 24.3409 4.14496 24.2946C4.93892 24.2482 5.77958 24.0626 6.71365 23.7843C7.50761 23.5524 8.34829 23.2277 9.23566 22.8566C9.8428 22.5783 10.3565 22.3463 10.8235 22.1144C11.057 23.1813 11.3373 24.2482 11.7109 25.2223C12.0378 26.1964 12.4115 26.9385 12.7384 27.5416C12.9719 27.9126 13.1587 28.2373 13.3455 28.5157C13.579 28.8404 13.8126 29.1187 14.0928 29.3042C14.1862 29.397 14.3263 29.4898 14.4197 29.5361C14.6065 29.6753 14.7466 29.7217 14.9335 29.8145C15.2604 29.9536 15.5873 30 15.9142 30C16.5681 30 17.2687 29.6753 17.8758 29.1187C18.156 28.8404 18.4362 28.562 18.6697 28.1446C18.9033 27.7735 19.1368 27.4024 19.3236 26.9385C19.6972 26.1036 20.0241 25.1759 20.3044 24.0626C20.4912 23.2741 20.678 22.3463 20.9115 21.1867C20.9582 20.862 21.0049 20.5837 21.0516 20.259C21.5186 20.259 22.0324 20.259 22.5462 20.259C24.2742 20.1662 25.6286 19.9807 26.7962 19.656C27.2632 19.5168 27.5901 19.424 27.9171 19.2385C28.3374 19.053 28.6176 18.8674 28.8978 18.6819C29.2247 18.4499 29.4116 18.218 29.5984 17.9861C29.7852 17.6614 29.9253 17.3831 29.972 17.0584C30.0654 16.5481 29.9253 15.9915 29.5517 15.4349C29.3649 15.1566 29.178 14.9246 28.9445 14.6927C28.6643 14.4144 28.3841 14.1361 28.1038 13.9041C27.6368 13.5331 27.1698 13.162 26.656 12.8373C26.4692 12.6981 26.2824 12.559 26.0489 12.4662C25.3951 12.0487 24.6478 11.5848 23.7604 11.121C23.3401 10.8891 22.9197 10.6571 22.4994 10.4716C22.5461 9.82219 22.5928 9.03363 22.5928 8.24507C22.6396 7.13181 22.6396 6.25048 22.5928 5.46192C22.5461 4.44144 22.406 3.65288 22.2659 2.91071C22.1725 2.49323 22.0791 2.16853 21.939 1.89022C21.7989 1.51913 21.6588 1.24082 21.472 1.00889C21.3318 0.68419 21.0983 0.498646 20.9115 0.359488Z" fill="#FEE9A4"/>
</svg>