<svg xmlns="http://www.w3.org/2000/svg" width="23" height="22" viewBox="0 0 23 22" fill="none"><script xmlns="" src="chrome-extension://hoklmmgfnpapgjgcpechhaamimifchmp/frame_ant/frame_ant.js"/>
<path d="M10.3966 0H10.3455C10.1408 0 9.93625 0.0505743 9.7828 0.151724C9.42473 0.303448 9.1178 0.606897 8.86204 1.01149C8.60628 1.41609 8.35051 1.87126 8.1459 2.42759C7.94129 2.93333 7.78784 3.48965 7.63438 4.14713C7.53208 4.6023 7.37866 5.15862 7.22521 5.91724V6.01839C7.17405 6.22069 7.12288 6.47356 7.07173 6.67586C6.66251 6.77701 6.20216 6.87816 5.74179 7.02988C5.12797 7.18161 4.5653 7.38391 3.95148 7.58621C3.2865 7.83908 2.77496 8.04138 2.26344 8.29425C1.70077 8.54713 1.29157 8.8 0.933508 9.10345C0.524294 9.4069 0.268547 9.71035 0.115092 10.0644C-0.0383639 10.4184 -0.0383639 10.823 0.115092 11.177C0.217395 11.3287 0.319674 11.531 0.473129 11.6828C0.626585 11.8345 0.831242 11.9862 1.03585 12.1379C1.44506 12.4414 1.95658 12.6943 2.5704 12.9471C3.08192 13.1494 3.64459 13.3517 4.36072 13.6046C4.92339 13.8069 5.48604 13.9586 6.20217 14.1103V14.2115V14.3632C6.15102 14.869 6.09984 15.3747 6.04869 15.8805C5.99754 16.5379 5.99755 17.0943 5.99755 17.6C5.99755 18.2575 6.04868 18.7632 6.09983 19.269C6.15098 19.5724 6.20216 19.8253 6.25331 20.0782C6.30446 20.2805 6.40676 20.5333 6.50907 20.7862C6.76483 21.2414 7.07176 21.5954 7.42983 21.7977C7.68559 21.8988 7.99247 22 8.29938 22C8.50399 22 8.70858 21.9494 8.86204 21.8989C9.1178 21.8483 9.37357 21.7471 9.57818 21.5954C9.83394 21.4437 10.0897 21.292 10.2943 21.1402C10.7547 20.7862 11.1639 20.331 11.6242 19.8253C11.9823 19.3701 12.3915 18.8138 12.7496 18.2575C13.0053 17.8529 13.21 17.4989 13.4146 17.1954C13.9772 17.7517 14.591 18.2575 15.256 18.7126C15.8698 19.1172 16.3813 19.4207 16.8417 19.6736C17.1486 19.8253 17.4044 19.9264 17.609 19.977C17.9159 20.0782 18.1205 20.1287 18.3763 20.1287C18.4786 20.1287 18.5809 20.1287 18.6832 20.1287C18.8367 20.1287 18.9901 20.1287 19.0924 20.0782C19.3482 20.0276 19.5528 19.9264 19.7574 19.8253C20.1666 19.5218 20.4224 19.0667 20.5758 18.5103C20.627 18.2575 20.6781 17.954 20.6781 17.6C20.6781 17.2966 20.627 16.9931 20.5758 16.6391C20.4735 16.0322 20.2689 15.3241 19.962 14.5655C19.7574 14.0092 19.5016 13.4023 19.1435 12.5931C19.0412 12.3908 18.9389 12.1885 18.8366 11.9862C19.1436 11.7839 19.3993 11.5816 19.7063 11.3793C20.7293 10.6207 21.4454 9.96322 22.0081 9.30575C22.2127 9.05287 22.3662 8.85057 22.5196 8.5977C22.6731 8.34483 22.7753 8.09195 22.8776 7.88966C22.9799 7.63678 23.0311 7.38391 22.9799 7.18161C22.9799 6.92874 22.9288 6.67586 22.8265 6.47356C22.6731 6.11954 22.3661 5.86667 21.9058 5.66437C21.7011 5.56322 21.4454 5.51264 21.2408 5.46207C20.9339 5.41149 20.6781 5.36092 20.4223 5.31035C20.0131 5.25977 19.5528 5.25977 19.0924 5.25977C18.9389 5.25977 18.7343 5.25977 18.5809 5.25977C18.0182 5.25977 17.4044 5.31034 16.6883 5.41149C16.3302 5.46207 16.0233 5.46207 15.6653 5.51264C15.4095 5.10805 15.1025 4.6023 14.7956 4.14713C14.3353 3.48965 13.9772 2.93333 13.6192 2.47816C13.1588 1.92184 12.7496 1.46667 12.3404 1.11264C12.1358 0.910344 11.9311 0.75862 11.7265 0.606896C11.4708 0.455172 11.2662 0.354023 11.0616 0.303448C10.8058 1.80869e-07 10.6012 0 10.3966 0Z" fill="#00BBAE"/>
</svg>