<svg xmlns="http://www.w3.org/2000/svg" width="23" height="23" viewBox="0 0 23 23" fill="none"><script xmlns="" src="chrome-extension://hoklmmgfnpapgjgcpechhaamimifchmp/frame_ant/frame_ant.js"/>
<path d="M16.0059 0.235234C15.7894 0.0733989 15.573 0.0194573 15.4106 0.0194573C15.0318 -0.0344876 14.5448 0.019454 14.0578 0.235234C13.5708 0.397069 13.1378 0.666793 12.5967 1.04441C12.1097 1.36808 11.6768 1.7457 11.0815 2.2312C10.7028 2.55487 10.2699 2.98643 9.67462 3.52588L9.62049 3.57983C9.45815 3.74166 9.24169 3.9035 9.07935 4.11928C8.64645 3.95744 8.21354 3.74166 7.72652 3.57983C7.13127 3.36405 6.48191 3.14826 5.83256 2.98643C5.12908 2.77065 4.53384 2.66276 3.93859 2.55487C3.28923 2.44698 2.74811 2.44698 2.26109 2.44698C1.71996 2.50092 1.28704 2.60882 0.962361 2.77065C0.583568 2.98643 0.367141 3.36404 0.313028 3.74165C0.258914 3.95743 0.313028 4.17322 0.313028 4.389C0.367141 4.60478 0.421234 4.8745 0.529461 5.14423C0.691801 5.62973 1.0165 6.16918 1.39529 6.76257C1.71997 7.24808 2.09875 7.78753 2.53166 8.38092C2.91045 8.86643 3.34337 9.35193 3.83039 9.94532L3.72216 10.0532L3.61392 10.1611C3.28924 10.5387 2.91044 10.9703 2.58576 11.4018C2.15285 11.9413 1.77406 12.4268 1.50349 12.8584C1.1247 13.4517 0.800047 13.9373 0.583594 14.3688C0.421254 14.6385 0.313008 14.9083 0.258895 15.178C0.204781 15.3938 0.0965746 15.6635 0.0424613 15.9872C-0.0657652 16.5266 0.0424415 17.0121 0.258895 17.3897C0.421234 17.6594 0.637694 17.8752 0.908261 18.091C1.0706 18.1989 1.28705 18.3068 1.44939 18.3607C1.71996 18.4686 1.99053 18.5226 2.26109 18.5226C2.58577 18.5765 2.85634 18.5765 3.18102 18.5226C3.77627 18.4686 4.42562 18.3607 5.12909 18.145C5.72434 17.9831 6.37371 17.7134 7.07719 17.4437C7.56421 17.2279 7.94299 17.0661 8.32179 16.8503C8.48413 17.6594 8.75469 18.4686 9.02525 19.2778C9.29582 20.033 9.56639 20.5725 9.83695 21.058C9.99929 21.3816 10.1616 21.5974 10.324 21.8132C10.5404 22.0829 10.7028 22.2448 10.8651 22.4066C10.9192 22.4605 11.0275 22.5145 11.1357 22.6224C11.2439 22.7303 11.4062 22.7842 11.5145 22.8382C11.785 22.9461 12.0015 23 12.272 23C12.8132 23 13.3543 22.7303 13.7872 22.2987C14.0037 22.0829 14.2201 21.8671 14.3825 21.5435C14.5448 21.2738 14.7071 20.9501 14.8695 20.6264C15.14 19.9791 15.4106 19.2778 15.6271 18.4147C15.7894 17.8213 15.9518 17.0661 16.06 16.2029C16.1141 15.9872 16.1141 15.7174 16.1682 15.5016C16.547 15.5016 16.9258 15.5016 17.3046 15.5016C18.6574 15.4477 19.6856 15.2859 20.5514 15.0701C20.8761 14.9622 21.1466 14.8543 21.4172 14.7464C21.7419 14.5846 21.9583 14.4767 22.1748 14.3149C22.3912 14.153 22.6077 13.9372 22.7159 13.7754C22.8782 13.5596 22.9865 13.2899 22.9865 13.0741C23.0406 12.6965 22.9324 12.265 22.6618 11.8334C22.5536 11.6176 22.3912 11.4558 22.2289 11.24C22.0125 11.0242 21.796 10.8084 21.5795 10.6466C21.2549 10.3769 20.8761 10.0532 20.4973 9.78349C20.3349 9.6756 20.1726 9.56771 20.0644 9.45982C19.5774 9.13615 18.9821 8.81248 18.3327 8.43487C18.0081 8.27303 17.6834 8.11119 17.3587 7.94936C17.4128 7.46386 17.4128 6.81652 17.4669 6.22312C17.4669 5.36001 17.4669 4.71267 17.4669 4.06533C17.4128 3.25615 17.3587 2.66276 17.1963 2.12331C17.1422 1.79964 17.034 1.52991 16.9258 1.31413C16.8176 1.04441 16.7094 0.82863 16.547 0.666795C16.3306 0.50496 16.1682 0.343124 16.0059 0.235234Z" fill="#FFC500"/>
</svg>